<svg width="72" height="72" viewBox="0 0 72 72" fill="none" xmlns="http://www.w3.org/2000/svg">
<path fill-rule="evenodd" clip-rule="evenodd" d="M18.4992 10.301C18.2761 10.0779 18.0112 9.90085 17.7196 9.78009C17.4281 9.65932 17.1156 9.59717 16.8 9.59717C16.4844 9.59717 16.172 9.65932 15.8804 9.78009C15.5889 9.90085 15.3239 10.0779 15.1008 10.301C14.8777 10.5241 14.7007 10.7891 14.5799 11.0806C14.4591 11.3721 14.397 11.6846 14.397 12.0002C14.397 12.3158 14.4591 12.6283 14.5799 12.9198C14.7007 13.2113 14.8777 13.4763 15.1008 13.6994L34.3008 32.8994C34.5237 33.1229 34.7886 33.3002 35.0802 33.4212C35.3717 33.5422 35.6843 33.6045 36 33.6045C36.3157 33.6045 36.6283 33.5422 36.9198 33.4212C37.2114 33.3002 37.4763 33.1229 37.6992 32.8994L56.8992 13.6994C57.3499 13.2487 57.603 12.6375 57.603 12.0002C57.603 11.3629 57.3499 10.7517 56.8992 10.301C56.4485 9.85034 55.8373 9.59717 55.2 9.59717C54.5627 9.59717 53.9515 9.85034 53.5008 10.301L36 27.8066L18.4992 10.301ZM18.4992 39.101C18.0485 38.6503 17.4373 38.3972 16.8 38.3972C16.1627 38.3972 15.5515 38.6503 15.1008 39.101C14.6501 39.5517 14.397 40.1629 14.397 40.8002C14.397 41.4375 14.6501 42.0487 15.1008 42.4994L34.3008 61.6994C34.5237 61.9229 34.7886 62.1002 35.0802 62.2212C35.3717 62.3422 35.6843 62.4045 36 62.4045C36.3157 62.4045 36.6283 62.3422 36.9198 62.2212C37.2114 62.1002 37.4763 61.9229 37.6992 61.6994L56.8992 42.4994C57.3499 42.0487 57.603 41.4375 57.603 40.8002C57.603 40.1629 57.3499 39.5517 56.8992 39.101C56.4485 38.6503 55.8373 38.3972 55.2 38.3972C54.5627 38.3972 53.9515 38.6503 53.5008 39.101L36 56.6066L18.4992 39.101Z" fill="#FFB930"/>
</svg>
