<svg width="20" height="21" viewBox="0 0 20 21" fill="none" xmlns="http://www.w3.org/2000/svg">
<path d="M5.51667 9.49167C6.71667 11.85 8.65 13.7833 11.0083 14.9833L12.8417 13.15C13.075 12.9167 13.4 12.85 13.6917 12.9417C14.625 13.25 15.625 13.4167 16.6667 13.4167C16.8877 13.4167 17.0996 13.5045 17.2559 13.6607C17.4122 13.817 17.5 14.029 17.5 14.25V17.1667C17.5 17.3877 17.4122 17.5996 17.2559 17.7559C17.0996 17.9122 16.8877 18 16.6667 18C12.9094 18 9.30609 16.5074 6.64932 13.8507C3.99256 11.1939 2.5 7.59057 2.5 3.83333C2.5 3.61232 2.5878 3.40036 2.74408 3.24408C2.90036 3.0878 3.11232 3 3.33333 3H6.25C6.47101 3 6.68298 3.0878 6.83926 3.24408C6.99554 3.40036 7.08333 3.61232 7.08333 3.83333C7.08333 4.875 7.25 5.875 7.55833 6.80833C7.65 7.1 7.58333 7.425 7.35 7.65833L5.51667 9.49167Z" fill="#FFB930"/>
</svg>
